<svg width="32" height="32" viewBox="0 0 32 32" fill="none" xmlns="http://www.w3.org/2000/svg">
<g clip-path="url(#clip0_50_834)">
<path d="M16 19.2812C17.8122 19.2812 19.2812 17.8122 19.2812 16C19.2812 14.1878 17.8122 12.7188 16 12.7188C14.1878 12.7188 12.7188 14.1878 12.7188 16C12.7188 17.8122 14.1878 19.2812 16 19.2812Z" fill="#FF0000"/>
<path d="M16 0.375C7.37056 0.375 0.375 7.37056 0.375 16C0.375 24.6294 7.37056 31.625 16 31.625C24.6294 31.625 31.625 24.6294 31.625 16C31.625 7.37056 24.6294 0.375 16 0.375ZM25.6536 19.9713C25.5786 21.4568 25.1612 22.9216 24.0786 23.9927C22.9856 25.0739 21.5138 25.4768 20.0139 25.5511H11.9861C10.4861 25.4768 9.0145 25.0742 7.92144 23.9927C6.83881 22.9216 6.42144 21.4568 6.34644 19.9713V12.0288C6.42144 10.5433 6.83887 9.07837 7.92144 8.00725C9.0145 6.926 10.4863 6.52312 11.9861 6.44894H20.0139C21.5139 6.52312 22.9855 6.92581 24.0786 8.00725C25.1612 9.07837 25.5786 10.5433 25.6536 12.0288L25.6536 19.9713Z" fill="#FF0000"/>
<path d="M19.9125 8.25897C17.9572 8.20534 14.0434 8.20534 12.088 8.25897C11.0705 8.28691 9.91691 8.54022 9.19191 9.31459C8.43854 10.1195 8.15385 11.092 8.12497 12.18C8.07422 14.0895 8.12497 19.8207 8.12497 19.8207C8.15804 20.9085 8.43854 21.8812 9.19191 22.6861C9.91691 23.4607 11.0705 23.7138 12.088 23.7417C14.0434 23.7953 17.9572 23.7953 19.9125 23.7417C20.9301 23.7138 22.0837 23.4605 22.8087 22.6861C23.562 21.8812 23.8467 20.9087 23.8756 19.8207V12.18C23.8467 11.092 23.562 10.1195 22.8087 9.31459C22.0834 8.53997 20.9298 8.28691 19.9125 8.25897ZM16 21.0863C14.9942 21.0863 14.0108 20.788 13.1745 20.2291C12.338 19.6703 11.6862 18.876 11.3012 17.9467C10.9163 17.0173 10.8156 15.9947 11.0118 15.0081C11.2081 14.0215 11.6925 13.1153 12.4037 12.404C13.115 11.6927 14.0212 11.2083 15.0078 11.0121C15.9944 10.8158 17.017 10.9166 17.9463 11.3015C18.8757 11.6865 19.67 12.3383 20.2288 13.1747C20.7877 14.0111 21.086 14.9944 21.086 16.0003C21.086 17.3492 20.5502 18.6428 19.5963 19.5966C18.6425 20.5504 17.3489 21.0863 16 21.0863ZM21.1076 11.9642C20.9064 11.9642 20.7098 11.9045 20.5425 11.7927C20.3753 11.6808 20.245 11.522 20.168 11.3361C20.0911 11.1502 20.071 10.9457 20.1102 10.7484C20.1495 10.5511 20.2464 10.3699 20.3887 10.2277C20.531 10.0854 20.7122 9.98859 20.9095 9.94934C21.1068 9.91009 21.3113 9.93028 21.4972 10.0073C21.683 10.0843 21.8418 10.2147 21.9537 10.3819C22.0654 10.5492 22.125 10.7458 22.125 10.947C22.125 11.0806 22.0987 11.2129 22.0476 11.3363C21.9965 11.4598 21.9215 11.5719 21.827 11.6663C21.7325 11.7608 21.6204 11.8357 21.4969 11.8868C21.3735 11.938 21.2412 11.9642 21.1076 11.9642Z" fill="#FF0000"/>
</g>
<defs>
<clipPath id="clip0_50_834">
<rect width="32" height="32" fill="white"/>
</clipPath>
</defs>
</svg>
