<svg width="32" height="32" viewBox="0 0 32 32" fill="none" xmlns="http://www.w3.org/2000/svg">
<g clip-path="url(#clip0_50_840)">
<path d="M16 0C7.16481 0 0 7.16481 0 16C0 24.8352 7.16481 32 16 32C24.8352 32 32 24.8352 32 16C32 7.16481 24.8352 0 16 0ZM11.3506 24.1875H7.45388V12.4641H11.3506V24.1875ZM9.40238 10.8632H9.37694C8.06931 10.8632 7.22363 9.96313 7.22363 8.83813C7.22363 7.68775 8.09519 6.8125 9.42825 6.8125C10.7613 6.8125 11.5816 7.68775 11.6069 8.83813C11.6069 9.96313 10.7613 10.8632 9.40238 10.8632ZM25.4014 24.1875H21.5051V17.9158C21.5051 16.3396 20.9409 15.2646 19.531 15.2646C18.4546 15.2646 17.8135 15.9897 17.5317 16.6897C17.4287 16.9402 17.4036 17.2903 17.4036 17.6406V24.1875H13.5071C13.5071 24.1875 13.5581 13.5639 13.5071 12.4641H17.4036V14.124C17.9214 13.3252 18.8479 12.1889 20.9153 12.1889C23.479 12.1889 25.4014 13.8645 25.4014 17.4653V24.1875Z" fill="#FF0000"/>
</g>
<defs>
<clipPath id="clip0_50_840">
<rect width="32" height="32" fill="white"/>
</clipPath>
</defs>
</svg>
