<svg width="32" height="32" viewBox="0 0 32 32" fill="none" xmlns="http://www.w3.org/2000/svg">
<g clip-path="url(#clip0_50_838)">
<path d="M16 0C7.17762 0 0 7.17762 0 16C0 24.8217 7.17762 32 16 32C24.8217 32 32 24.8217 32 16C32 7.17762 24.823 0 16 0ZM23.1377 12.3381C23.1448 12.4966 23.1486 12.6564 23.1486 12.8162C23.1486 17.6828 19.4454 23.2924 12.6699 23.2924C10.5902 23.2924 8.65413 22.6846 7.02488 21.6392C7.313 21.6734 7.60619 21.6908 7.90331 21.6908C9.62925 21.6908 11.2166 21.1017 12.4773 20.1144C10.866 20.0847 9.5055 19.0201 9.037 17.5564C9.26125 17.5989 9.49263 17.6228 9.72913 17.6228C10.0649 17.6228 10.3911 17.579 10.6997 17.4946C9.01506 17.1569 7.74606 15.6687 7.74606 13.8835C7.74606 13.8681 7.74606 13.8519 7.74669 13.8371C8.243 14.1123 8.81075 14.2786 9.414 14.2972C8.42662 13.6379 7.77637 12.5101 7.77637 11.2327C7.77637 10.5573 7.95744 9.92444 8.27456 9.3805C10.0901 11.6091 12.8046 13.0747 15.8647 13.2294C15.8015 12.9593 15.7699 12.6789 15.7699 12.3896C15.7699 10.3562 17.4185 8.707 19.4519 8.707C20.5114 8.707 21.4672 9.15425 22.14 9.86963C22.9797 9.70469 23.7661 9.39919 24.4795 8.97575C24.2024 9.83613 23.6204 10.5573 22.858 11.0136C23.6036 10.9247 24.3151 10.7274 24.9732 10.4342C24.4821 11.1715 23.8576 11.8205 23.1377 12.3381Z" fill="#FF0000"/>
</g>
<defs>
<clipPath id="clip0_50_838">
<rect width="32" height="32" fill="white"/>
</clipPath>
</defs>
</svg>
