<svg width="196" height="31" viewBox="0 0 196 31" fill="none" xmlns="http://www.w3.org/2000/svg">
<path d="M47.8928 4.31934H53.3701V17.164C53.3701 18.4377 53.2061 19.6413 52.8797 20.7725C52.5518 21.9037 52.0386 22.8938 51.3401 23.7416C50.6415 24.5879 49.9079 25.1844 49.1409 25.5269C48.0742 26.0065 46.7939 26.2471 45.2986 26.2471C44.4349 26.2471 43.4916 26.1731 42.4693 26.0267C41.4469 25.879 40.5926 25.5874 39.906 25.1521C39.2195 24.7155 38.5922 24.0962 38.0226 23.2927C37.453 22.4894 37.0633 21.6618 36.8524 20.8088C36.5138 19.4372 36.3433 18.2227 36.3433 17.164V4.31934H41.8217V17.473C41.8217 18.6485 42.0905 19.5674 42.6265 20.2284C43.1639 20.8894 43.9096 21.2212 44.8634 21.2212C45.8078 21.2212 46.5494 20.8948 47.0868 20.2432C47.6242 19.5916 47.8928 18.6687 47.8928 17.473V4.31934Z" fill="#0010FF"/>
<path d="M56.9502 4.31934H66.0763C68.0632 4.31934 69.5517 4.893 70.5419 6.03898C71.5307 7.18496 72.0264 8.81725 72.0264 10.9332C72.0264 13.1081 71.4863 14.8076 70.4089 16.0328C69.3301 17.2581 67.683 17.8694 65.4703 17.8694H62.4651V25.8642H56.9502V4.31934ZM62.4651 13.5045H63.8098C64.8685 13.5045 65.6114 13.2814 66.04 12.8368C66.4672 12.3908 66.6822 11.8198 66.6822 11.1238C66.6822 10.4481 66.4954 9.87454 66.1246 9.4042C65.7524 8.93402 65.0539 8.699 64.0275 8.699H62.4651V13.5045Z" fill="#0010FF"/>
<path d="M74.8721 4.31934H83.9968C85.9839 4.31934 87.4724 4.893 88.4625 6.03898C89.4526 7.18496 89.9469 8.81725 89.9469 10.9332C89.9469 13.1081 89.4082 14.8076 88.3294 16.0328C87.2506 17.2581 85.6049 17.8694 83.391 17.8694H80.3857V25.8642H74.8721V4.31934ZM80.3857 13.5045H81.7305C82.7892 13.5045 83.532 13.2814 83.9607 12.8368C84.3892 12.3908 84.6027 11.8198 84.6027 11.1238C84.6027 10.4481 84.4174 9.87454 84.0452 9.4042C83.6744 8.93402 82.9744 8.699 81.9494 8.699H80.3857V13.5045Z" fill="#0010FF"/>
<path d="M92.7927 4.31934H107.506V8.91923H98.2955V12.3437H106.84V16.7382H98.2955V20.9848H107.772V25.8642H92.794V4.31934H92.7927Z" fill="#0010FF"/>
<path d="M110.84 25.8642V4.31934H119.989C121.686 4.31934 122.982 4.49538 123.88 4.84865C124.776 5.20193 125.499 5.85487 126.048 6.81003C126.598 7.76534 126.873 8.92999 126.873 10.3017C126.873 11.4961 126.662 12.5278 126.243 13.3943C125.822 14.2621 125.245 14.9648 124.51 15.5035C124.041 15.846 123.399 16.1309 122.582 16.3565C123.238 16.6199 123.713 16.8845 124.013 17.1492C124.214 17.3266 124.507 17.7027 124.891 18.2818C125.274 18.8595 125.531 19.3055 125.661 19.6184L128.315 25.8642H122.11L119.178 19.2813C118.806 18.4283 118.474 17.8748 118.184 17.6194C117.787 17.2863 117.34 17.1197 116.839 17.1197H116.354V25.8642H110.84ZM116.354 13.0491H118.668C118.918 13.0491 119.403 12.951 120.122 12.7548C120.486 12.6674 120.783 12.4418 121.013 12.079C121.244 11.7163 121.358 11.2999 121.358 10.8297C121.358 10.1351 121.177 9.6004 120.813 9.22831C120.45 8.85607 119.768 8.66943 118.765 8.66943H116.354V13.0491Z" fill="#0010FF"/>
<path d="M130.072 4.31934H135.562V20.559H144.13V25.8642H130.072V4.31934Z" fill="#0010FF"/>
<path d="M152.31 4.31934H146.808V25.8642H152.31V4.31934Z" fill="#0010FF"/>
<path d="M156.299 4.31934H161.424L168.115 16.2384V4.31934H173.288V25.8642H168.115L161.461 14.0338V25.8642H156.299V4.31934Z" fill="#0010FF"/>
<path d="M176.968 4.31934H182.457V12.462L188.214 4.31934H195.509L189.038 12.4472L195.799 25.8642H189.038L185.293 17.0028L182.457 20.6032V25.8642H176.968V4.31934Z" fill="#0010FF"/>
<path fill-rule="evenodd" clip-rule="evenodd" d="M12.801 2.80246L15.6034 0L31.1028 15.4993L15.6034 31L12.801 28.1975L25.4992 15.4993L12.801 2.80246Z" fill="#FF0000"/>
<path fill-rule="evenodd" clip-rule="evenodd" d="M20.3855 13.7706H10.9329V16.7355H20.3855L10.9329 26.1866L0 15.2524L10.9329 4.31934L20.3855 13.7706Z" fill="#0010FF"/>
</svg>
